# xmcd CD database file
# Copyright (C) 1997 Ti Kan
# 
# Track frame offsets:
#     150
#     14627
#     28560
#     42000
#     60612
#     77470
#     91107
#     104567
#     121272
#     136777
#     151527
#     164720
#     176462
#     192725
#     205205
# 
# Disc length: 2911 seconds
# 
# Revision: 1
# Processed by: cddbd v1.4b41PL1 Copyright (c) Steve Scherf et al.
# Submitted via: DiscPlay 4.0.4
# 
DISCID=bc0b5d0f
DTITLE=Juliana Luise Muller y Los Amigos de La Luna - Mujer de Amores
DYEAR=1900
DGENRE=
TTITLE0=Como Nasce a Lua
TTITLE1=Rio sem Foz
TTITLE2=No Me Olvides
TTITLE3=Solo Tres Palabras
TTITLE4=Que  s Mi Luna Sin Tu Amor
TTITLE5=As 6
TTITLE6=A Surdez
TTITLE7=Espirito no Espelho
TTITLE8=Danca
TTITLE9=Amor a Fuego
TTITLE10=Doce Canela
TTITLE11=Gitano
TTITLE12=Quiero Amanecer Contigo
TTITLE13=Canto Noturno
TTITLE14=Mujer de Amores
EXTD=
EXTT0=
EXTT1=
EXTT2=
EXTT3=
EXTT4=
EXTT5=
EXTT6=
EXTT7=
EXTT8=
EXTT9=
EXTT10=
EXTT11=
EXTT12=
EXTT13=
EXTT14=
PLAYORDER=
